<?xml version="1.0" encoding="UTF-8"?>
<svg width="180px" height="180px" viewBox="0 0 180 180" version="1.1" xmlns="http://www.w3.org/2000/svg" xmlns:xlink="http://www.w3.org/1999/xlink">
    <title>3D4C7F9C-2331-4233-9099-E4EB56ECA233</title>
    <defs>
        <polygon id="path-1" points="0 180 180 180 180 0 0 0"></polygon>
    </defs>
    <g id="【案件】SEO施策" stroke="none" stroke-width="1" fill="none" fill-rule="evenodd">
        <g id="Top_PC_SEO施策_03" transform="translate(-500.000000, -2025.000000)">
            <g id="導入事例" transform="translate(1.000000, 1212.000000)">
                <g id="illust" transform="translate(202.000000, 745.000000)">
                    <g id="illust_02" transform="translate(263.000000, 68.000000)">
                        <g transform="translate(34.000000, 0.000000)" id="illust_02_Beauty">
                            <path d="M39.8725,76.4987 C45.5475,75.0097 59.1705,77.7117 76.6605,78.5017 L80.3705,92.6457 C65.5225,101.9187 54.9785,110.9607 49.3045,112.4497 C39.3765,115.0547 29.2175,109.1177 26.6125,99.1897 C24.0085,89.2627 29.9445,79.1037 39.8725,76.4987 Z" id="Stroke-3" stroke="#20AEE5" stroke-width="3" stroke-linecap="round" stroke-linejoin="round"></path>
                            <polyline id="Stroke-5" stroke="#20AEE5" stroke-width="3" stroke-linecap="round" stroke-linejoin="round" points="81.8112 77.7554 88.6242 72.5794 93.6282 91.6524 85.1512 90.4874"></polyline>
                            <path d="M35.0294,96.982 C36.1324,101.185 40.4324,103.698 44.6354,102.595 C48.8374,101.493 51.3514,97.192 50.2484,92.989 C49.1454,88.787 44.8454,86.274 40.6424,87.376 C36.4404,88.479 33.9264,92.779 35.0294,96.982 Z" id="Stroke-7" stroke="#20AEE5" stroke-width="3" stroke-linecap="round" stroke-linejoin="round"></path>
                            <path d="M59.2457,114.9886 L69.4007,129.3586 C70.5757,131.0226 69.7287,133.3476 67.7587,133.8646 L61.9187,135.3966 C59.5927,136.0066 57.1307,135.1266 55.7177,133.1806 L45.4957,119.1006" id="Stroke-9" stroke="#20AEE5" stroke-width="3" stroke-linecap="round" stroke-linejoin="round"></path>
                            <line x1="53.5223" y1="117.6127" x2="57.6153" y2="123.4047" id="Stroke-11" stroke="#20AEE5" stroke-width="3" stroke-linecap="round" stroke-linejoin="round"></line>
                            <polyline id="Stroke-13" stroke="#20AEE5" stroke-width="3" stroke-linecap="round" stroke-linejoin="round" points="140.8018 124.6295 145.9998 86.6055 145.9998 79.4825 119.3598 79.4825 119.3598 86.6055 124.5578 124.6295"></polyline>
                            <line x1="124.5584" y1="124.6293" x2="135.1324" y2="124.6293" id="Stroke-15" stroke="#20AEE5" stroke-width="3" stroke-linecap="round" stroke-linejoin="round"></line>
                            <line x1="140.8265" y1="85.1518" x2="124.5335" y2="85.1518" id="Stroke-17" stroke="#20AEE5" stroke-width="3" stroke-linecap="round" stroke-linejoin="round"></line>
                            <polyline id="Stroke-19" stroke="#20AEE5" stroke-width="3" stroke-linecap="round" stroke-linejoin="round" points="124.5582 124.6295 124.5582 134.5295 140.8022 134.5295 140.8022 124.6295"></polyline>
                            <path d="M138.6119,99.1672 C138.7379,99.8362 138.8049,100.5382 138.8049,101.2612 C138.8049,105.8892 136.0629,109.6412 132.6799,109.6412 C129.2979,109.6412 126.5549,105.8892 126.5549,101.2612 C126.5549,96.6332 129.2979,92.8822 132.6799,92.8822 C133.9489,92.8822 135.1269,93.4092 136.1039,94.3132" id="Stroke-21" stroke="#20AEE5" stroke-width="3" stroke-linecap="round" stroke-linejoin="round"></path>
                            <mask id="mask-2" fill="white">
                                <use xlink:href="#path-1"></use>
                            </mask>
                            <g id="Clip-24"></g>
                            <polygon id="Stroke-23" stroke="#20AEE5" stroke-width="3" stroke-linecap="round" stroke-linejoin="round" mask="url(#mask-2)" points="102.609 104.928 113.666 104.928 113.666 99.328 102.609 99.328"></polygon>
                            <path d="M105.3381,99.3288 L105.3381,93.1728 C105.3381,91.6258 106.5911,90.3728 108.1381,90.3728 L108.1381,90.3728 C109.6841,90.3728 110.9381,91.6258 110.9381,93.1728 L110.9381,95.0768" id="Stroke-25" stroke="#20AEE5" stroke-width="3" stroke-linecap="round" stroke-linejoin="round" mask="url(#mask-2)"></path>
                            <path d="M104.786,104.9284 L104.786,106.1964 C104.786,107.5174 104.096,108.7414 102.966,109.4264 L102.851,109.4954 C100.215,111.0924 98.605,113.9504 98.605,117.0324 L98.605,130.7534 C98.605,132.8384 100.295,134.5294 102.381,134.5294 L108.138,134.5294" id="Stroke-26" stroke="#20AEE5" stroke-width="3" stroke-linecap="round" stroke-linejoin="round" mask="url(#mask-2)"></path>
                            <path d="M113.2226,109.4259 L113.3376,109.4959 C115.9736,111.0919 117.5836,113.9499 117.5836,117.0319 L117.5836,130.7529 C117.5836,132.8389 115.8936,134.5289 113.8076,134.5289 L108.0506,134.5289" id="Stroke-27" stroke="#20AEE5" stroke-width="3" stroke-linecap="round" stroke-linejoin="round" mask="url(#mask-2)"></path>
                            <line x1="99.3158" y1="116.4626" x2="109.1688" y2="116.4626" id="Stroke-28" stroke="#20AEE5" stroke-width="3" stroke-linecap="round" stroke-linejoin="round" mask="url(#mask-2)"></line>
                            <line x1="99.3158" y1="125.7288" x2="116.7928" y2="125.7288" id="Stroke-29" stroke="#20AEE5" stroke-width="3" stroke-linecap="round" stroke-linejoin="round" mask="url(#mask-2)"></line>
                            <polyline id="Stroke-30" stroke="#20AEE5" stroke-width="3" stroke-linecap="round" stroke-linejoin="round" mask="url(#mask-2)" points="87.2265 62.5292 87.2265 55.7562 100.7735 55.7562 100.7735 62.5292"></polyline>
                            <path d="M87.2265,47.7735 L100.7735,47.7735 L100.7735,45.5155 C100.7735,43.0215 98.7515,40.9995 96.2575,40.9995 L88.5795,40.9995 C87.6975,40.9995 86.8335,41.2585 86.0965,41.7445 L76.9405,47.7735 L78.2145,51.3185 L87.2265,47.7735 Z" id="Stroke-31" stroke="#20AEE5" stroke-width="3" stroke-linecap="round" stroke-linejoin="round" mask="url(#mask-2)"></path>
                            <polygon id="Stroke-32" stroke="#20AEE5" stroke-width="3" stroke-linecap="round" stroke-linejoin="round" mask="url(#mask-2)" points="90.998 55.756 97.002 55.756 97.002 47.837 90.998 47.837"></polygon>
                            <path d="M76.1519,70.783 C76.9779,66.093 81.0729,62.529 85.9999,62.529 L101.9999,62.529 C107.5229,62.529 111.9999,67.006 111.9999,72.529 L111.9999,83.734" id="Stroke-33" stroke="#20AEE5" stroke-width="3" stroke-linecap="round" stroke-linejoin="round" mask="url(#mask-2)"></path>
                            <path d="M90.9921,134.5293 L80.0001,134.5293 C77.7911,134.5293 76.0001,132.7383 76.0001,130.5293 L76.0001,104.4543" id="Stroke-34" stroke="#20AEE5" stroke-width="3" stroke-linecap="round" stroke-linejoin="round" mask="url(#mask-2)"></path>
                            <path d="M132.1947,51.3186 C128.1947,52.7546 127.2997,53.9186 126.1947,59.1186 C125.0897,53.9186 124.1947,52.7546 120.1947,51.3186 C124.1947,49.8826 125.0897,48.7186 126.1947,43.5186 C127.2997,48.7186 128.1947,49.8826 132.1947,51.3186 Z" id="Stroke-35" stroke="#20ADE4" stroke-width="3" stroke-linecap="round" stroke-linejoin="round" mask="url(#mask-2)"></path>
                            <line x1="54.6151" y1="64.777" x2="60.6151" y2="64.777" id="Stroke-36" stroke="#20ADE4" stroke-width="3" stroke-linecap="round" stroke-linejoin="round" mask="url(#mask-2)"></line>
                            <line x1="57.6151" y1="60.777" x2="57.6151" y2="68.777" id="Stroke-37" stroke="#20ADE4" stroke-width="3" stroke-linecap="round" stroke-linejoin="round" mask="url(#mask-2)"></line>
                        </g>
                    </g>
                </g>
            </g>
        </g>
    </g>
</svg>