<?xml version="1.0" encoding="UTF-8"?>
<svg width="122px" height="100px" viewBox="0 0 122 100" version="1.1" xmlns="http://www.w3.org/2000/svg" xmlns:xlink="http://www.w3.org/1999/xlink">
    <title>E1B2CFD9-22C2-47BB-BCB4-F847ECC3FB46</title>
    <g id="【案件】SEO施策" stroke="none" stroke-width="1" fill="none" fill-rule="evenodd">
        <g id="Top_PC_SEO施策_03" transform="translate(-265.000000, -2065.000000)">
            <g id="導入事例" transform="translate(1.000000, 1212.000000)">
                <g id="illust" transform="translate(202.000000, 745.000000)">
                    <g id="illust_01" transform="translate(0.000000, 68.000000)">
                        <g transform="translate(34.000000, 0.000000)" id="illust_01_-Restaurant">
                            <g transform="translate(30.000000, 41.634200)">
                                <path d="M26.9795,42.2005 C26.9795,50.6505 28.3875,63.7215 20.6345,67.1045 C18.2185,68.1585 19.0065,79.4295 19.0065,79.4295" id="Stroke-4" stroke="#20ACE3" stroke-width="3" stroke-linecap="round" stroke-linejoin="round"></path>
                                <path d="M3.9487,41.5563 C3.9487,45.0363 1.8547,62.8153 12.0437,67.9783 C13.7727,73.1233 12.4847,86.6513 12.4847,86.6513" id="Stroke-6" stroke="#20ACE3" stroke-width="3" stroke-linecap="round" stroke-linejoin="round"></path>
                                <line x1="7.9751" y1="88.101" x2="21.1071" y2="87.956" id="Stroke-8" stroke="#20ACE3" stroke-width="3" stroke-linecap="round" stroke-linejoin="round"></line>
                                <line x1="42.9603" y1="0.5" x2="49.2773" y2="0.5" id="Stroke-10" stroke="#20ACE3" stroke-width="3" stroke-linecap="round" stroke-linejoin="round"></line>
                                <path d="M50.1713,6.9678 C50.1713,8.8698 49.2773,20.1558 50.4913,25.2288 C51.7053,30.3008 55.3003,45.2218 54.8453,64.7958" id="Stroke-12" stroke="#20ACE3" stroke-width="3" stroke-linecap="round" stroke-linejoin="round"></path>
                                <path d="M42.9976,0.8164 L42.9976,22.6924 C42.9976,28.3984 35.5156,46.8714 39.5416,72.8004" id="Stroke-14" stroke="#20ACE3" stroke-width="3" stroke-linecap="round" stroke-linejoin="round"></path>
                                <line x1="9.7055" y1="51.9272" x2="21.0465" y2="51.9272" id="Stroke-16" stroke="#20ACE3" stroke-width="3" stroke-linecap="round" stroke-linejoin="round"></line>
                                <path d="M62.0732,55.0846 C66.4212,55.0846 101.0022,55.2396 101.0022,55.2396" id="Stroke-18" stroke="#20ACE3" stroke-width="3" stroke-linecap="round" stroke-linejoin="round"></path>
                                <path d="M0,96.2316 C4.78,96.2206 115.152,96.2316 115.152,96.2316" id="Stroke-20" stroke="#20ACE3" stroke-width="3" stroke-linecap="round" stroke-linejoin="round"></path>
                                <path d="M101.0023,55.2394 C99.5053,60.8144 93.8663,66.1394 90.0453,68.6624" id="Stroke-22" stroke="#20ACE3" stroke-width="3" stroke-linecap="round" stroke-linejoin="round"></path>
                                <path d="M54.9451,83.9644 C41.5921,83.9644 36.8441,83.0444 34.7911,81.3734" id="Stroke-24" stroke="#20ACE3" stroke-width="3" stroke-linecap="round" stroke-linejoin="round"></path>
                                <path d="M82.3728,75.714 C96.1568,70.314 112.6148,70.53 116.9358,71.394 C121.2558,72.258 120.8448,75.282 116.7298,75.714 C109.6588,76.456 89.7788,74.202 84.0188,77.658 C81.8678,78.948 78.8758,83.49 72.0858,83.706 C65.2968,83.922 58.9198,80.25 58.9198,76.794 C58.9198,73.338 75.9528,77.246 82.3728,75.714" id="Fill-26" fill="#20ACE3"></path>
                                <path d="M103.3295,79.9473 C103.3295,86.6403 85.6655,89.0363 63.8765,89.0363 C42.0875,89.0363 27.1405,87.9403 24.4025,81.9813 C21.4255,75.5003 40.5085,73.4453 53.3925,73.7673" id="Stroke-28" stroke="#20ACE3" stroke-width="3" stroke-linecap="round" stroke-linejoin="round"></path>
                                <line x1="4.1098" y1="40.9482" x2="21.3048" y2="40.9482" id="Stroke-3" stroke="#20ACE3" stroke-width="3" stroke-linecap="round" stroke-linejoin="round"></line>
                            </g>
                        </g>
                    </g>
                </g>
            </g>
        </g>
    </g>
</svg>