<?xml version="1.0" encoding="UTF-8"?>
<svg width="124px" height="111px" viewBox="0 0 124 111" version="1.1" xmlns="http://www.w3.org/2000/svg" xmlns:xlink="http://www.w3.org/1999/xlink">
    <title>486DE54C-73E0-4527-8B7B-FF7D61855B17</title>
    <g id="【案件】SEO施策" stroke="none" stroke-width="1" fill="none" fill-rule="evenodd">
        <g id="Top_PC_SEO施策_03" transform="translate(-791.000000, -2057.000000)">
            <g id="導入事例" transform="translate(1.000000, 1212.000000)">
                <g id="illust" transform="translate(202.000000, 745.000000)">
                    <g id="illust_03" transform="translate(526.000000, 68.000000)">
                        <g transform="translate(34.000000, 0.000000)" id="illust_03_Education">
                            <g transform="translate(30.000000, 34.000400)">
                                <path d="M70.3272,32.7189 C70.3272,38.8639 65.3452,43.8459 59.2002,43.8459 C53.0552,43.8459 48.0732,38.8639 48.0732,32.7189 C48.0732,26.5739 53.0552,21.5919 59.2002,21.5919 C65.3452,21.5919 70.3272,26.5739 70.3272,32.7189 Z" id="Stroke-3" stroke="#1DABE3" stroke-width="3" stroke-linecap="round" stroke-linejoin="round"></path>
                                <polyline id="Stroke-5" stroke="#1DABE3" stroke-width="3" stroke-linecap="round" stroke-linejoin="round" points="59.2004 27.5706 59.2004 33.8746 63.5284 33.8746"></polyline>
                                <path d="M22.833,67.8057 L16.671,67.8057 C16.091,67.8057 15.615,67.3307 15.615,66.7497 L15.615,60.5877 C15.615,60.0077 16.091,59.5317 16.671,59.5317 L22.833,59.5317 C23.414,59.5317 23.889,60.0077 23.889,60.5877 L23.889,66.7497 C23.889,67.3307 23.414,67.8057 22.833,67.8057" id="Fill-7" fill="#1DABE3"></path>
                                <path d="M35.6238,67.8057 L29.4618,67.8057 C28.8818,67.8057 28.4058,67.3307 28.4058,66.7497 L28.4058,60.5877 C28.4058,60.0077 28.8818,59.5317 29.4618,59.5317 L35.6238,59.5317 C36.2048,59.5317 36.6798,60.0077 36.6798,60.5877 L36.6798,66.7497 C36.6798,67.3307 36.2048,67.8057 35.6238,67.8057" id="Fill-9" fill="#1DABE3"></path>
                                <path d="M57.3263,67.8057 L51.1643,67.8057 C50.5843,67.8057 50.1083,67.3307 50.1083,66.7497 L50.1083,60.5877 C50.1083,60.0077 50.5843,59.5317 51.1643,59.5317 L57.3263,59.5317 C57.9073,59.5317 58.3823,60.0077 58.3823,60.5877 L58.3823,66.7497 C58.3823,67.3307 57.9073,67.8057 57.3263,67.8057" id="Fill-11" fill="#1DABE3"></path>
                                <path d="M70.1171,67.8057 L63.9551,67.8057 C63.3751,67.8057 62.8991,67.3307 62.8991,66.7497 L62.8991,60.5877 C62.8991,60.0077 63.3751,59.5317 63.9551,59.5317 L70.1171,59.5317 C70.6981,59.5317 71.1731,60.0077 71.1731,60.5877 L71.1731,66.7497 C71.1731,67.3307 70.6981,67.8057 70.1171,67.8057" id="Fill-13" fill="#1DABE3"></path>
                                <path d="M22.833,81.7141 L16.671,81.7141 C16.091,81.7141 15.615,81.2391 15.615,80.6581 L15.615,74.4961 C15.615,73.9161 16.091,73.4401 16.671,73.4401 L22.833,73.4401 C23.414,73.4401 23.889,73.9161 23.889,74.4961 L23.889,80.6581 C23.889,81.2391 23.414,81.7141 22.833,81.7141" id="Fill-15" fill="#1DABE3"></path>
                                <path d="M35.6238,81.7141 L29.4618,81.7141 C28.8818,81.7141 28.4058,81.2391 28.4058,80.6581 L28.4058,74.4961 C28.4058,73.9161 28.8818,73.4401 29.4618,73.4401 L35.6238,73.4401 C36.2048,73.4401 36.6798,73.9161 36.6798,74.4961 L36.6798,80.6581 C36.6798,81.2391 36.2048,81.7141 35.6238,81.7141" id="Fill-17" fill="#1DABE3"></path>
                                <path d="M91.8197,67.8057 L85.6577,67.8057 C85.0777,67.8057 84.6017,67.3307 84.6017,66.7497 L84.6017,60.5877 C84.6017,60.0077 85.0777,59.5317 85.6577,59.5317 L91.8197,59.5317 C92.4007,59.5317 92.8757,60.0077 92.8757,60.5877 L92.8757,66.7497 C92.8757,67.3307 92.4007,67.8057 91.8197,67.8057" id="Fill-19" fill="#1DABE3"></path>
                                <path d="M104.6105,67.8057 L98.4495,67.8057 C97.8685,67.8057 97.3925,67.3307 97.3925,66.7497 L97.3925,60.5877 C97.3925,60.0077 97.8685,59.5317 98.4495,59.5317 L104.6105,59.5317 C105.1915,59.5317 105.6665,60.0077 105.6665,60.5877 L105.6665,66.7497 C105.6665,67.3307 105.1915,67.8057 104.6105,67.8057" id="Fill-21" fill="#1DABE3"></path>
                                <path d="M91.8197,81.7141 L85.6577,81.7141 C85.0777,81.7141 84.6017,81.2391 84.6017,80.6581 L84.6017,74.4961 C84.6017,73.9161 85.0777,73.4401 85.6577,73.4401 L91.8197,73.4401 C92.4007,73.4401 92.8757,73.9161 92.8757,74.4961 L92.8757,80.6581 C92.8757,81.2391 92.4007,81.7141 91.8197,81.7141" id="Fill-23" fill="#1DABE3"></path>
                                <polyline id="Stroke-25" stroke="#1DABE3" stroke-width="3" stroke-linecap="round" stroke-linejoin="round" points="27.0365 22.397 59.9455 0 90.7695 23.455"></polyline>
                                <path d="M35.3195,27.5706 L35.3195,42.2806 C35.3195,44.8136 33.2665,46.8666 30.7335,46.8666 L9.5475,46.8666 C7.0145,46.8666 4.9605,48.9196 4.9605,51.4526 L4.9605,100.8256" id="Stroke-27" stroke="#1DABE3" stroke-width="3" stroke-linecap="round" stroke-linejoin="round"></path>
                                <path d="M84.6021,27.5706 L84.6021,42.2806 C84.6021,44.8136 86.6551,46.8666 89.1881,46.8666 L110.3741,46.8666 C112.9071,46.8666 114.9611,48.9196 114.9611,51.4526 L114.9611,58.3056" id="Stroke-29" stroke="#1DABE3" stroke-width="3" stroke-linecap="round" stroke-linejoin="round"></path>
                                <path d="M74.4252,100.8254 L74.4252,83.3204 C74.4252,80.7874 72.3722,78.7334 69.8392,78.7334 L51.4432,78.7334 C48.9102,78.7334 46.8562,80.7874 46.8562,83.3204 L46.8562,100.8254" id="Stroke-31" stroke="#1DABE3" stroke-width="3" stroke-linecap="round" stroke-linejoin="round"></path>
                                <polygon id="Stroke-33" stroke="#1DABE3" stroke-width="3" stroke-linecap="round" stroke-linejoin="round" points="113.8717 65.433 119.9997 70.575 94.2887 101.217 88.1607 96.075"></polygon>
                                <polygon id="Stroke-35" stroke="#1DABE3" stroke-width="3" stroke-linecap="round" stroke-linejoin="round" points="84.368 106.8171 94.289 101.2171 88.16 96.0751"></polygon>
                                <polygon id="Fill-37" fill="#1DABE3" points="84.368 106.8171 88.708 104.3671 86.027 102.1171"></polygon>
                                <polygon id="Stroke-39" stroke="#1DABE3" stroke-width="3" stroke-linecap="round" stroke-linejoin="round" points="84.368 106.8171 88.708 104.3671 86.027 102.1171"></polygon>
                                <line x1="0" y1="107.433" x2="78.963" y2="107.433" id="Stroke-41" stroke="#1DABE3" stroke-width="3" stroke-linecap="round" stroke-linejoin="round"></line>
                                <line x1="114.9608" y1="87.4106" x2="114.9608" y2="100.8256" id="Stroke-43" stroke="#1DABE3" stroke-width="3" stroke-linecap="round" stroke-linejoin="round"></line>
                            </g>
                        </g>
                    </g>
                </g>
            </g>
        </g>
    </g>
</svg>