<?xml version="1.0" encoding="UTF-8"?>
<svg width="124px" height="94px" viewBox="0 0 124 94" version="1.1" xmlns="http://www.w3.org/2000/svg" xmlns:xlink="http://www.w3.org/1999/xlink">
    <title>41DBC9BA-F267-436F-9874-EC05557D00D1</title>
    <g id="【案件】SEO施策" stroke="none" stroke-width="1" fill="none" fill-rule="evenodd">
        <g id="Top_PC_SEO施策_03" transform="translate(-1054.000000, -2067.000000)">
            <g id="導入事例" transform="translate(1.000000, 1212.000000)">
                <g id="illust" transform="translate(202.000000, 745.000000)">
                    <g id="illust_04" transform="translate(789.000000, 68.000000)">
                        <g transform="translate(34.000000, 0.000000)" id="illust_04_MedicalCare">
                            <g transform="translate(30.000000, 44.000500)">
                                <path d="M60.0813,34.9743 L57.7513,34.9743 C57.2453,34.9743 56.8353,34.5643 56.8353,34.0573 L56.8353,14.9023 C56.8353,14.3963 57.2453,13.9863 57.7513,13.9863 L60.0813,13.9863 C60.5873,13.9863 60.9983,14.3963 60.9983,14.9023 L60.9983,34.0573 C60.9983,34.5643 60.5873,34.9743 60.0813,34.9743" id="Fill-3" fill="#1DABE3"></path>
                                <path d="M60.0813,34.9743 L57.7513,34.9743 C57.2453,34.9743 56.8353,34.5643 56.8353,34.0573 L56.8353,14.9023 C56.8353,14.3963 57.2453,13.9863 57.7513,13.9863 L60.0813,13.9863 C60.5873,13.9863 60.9983,14.3963 60.9983,14.9023 L60.9983,34.0573 C60.9983,34.5643 60.5873,34.9743 60.0813,34.9743 Z" id="Stroke-5" stroke="#1DABE3" stroke-width="3"></path>
                                <path d="M48.4669,25.6037 L48.4669,23.2737 C48.4669,22.7677 48.8769,22.3577 49.3839,22.3577 L68.5389,22.3577 C69.0449,22.3577 69.4549,22.7677 69.4549,23.2737 L69.4549,25.6037 C69.4549,26.1097 69.0449,26.5207 68.5389,26.5207 L49.3839,26.5207 C48.8769,26.5207 48.4669,26.1097 48.4669,25.6037" id="Fill-7" fill="#1DABE3"></path>
                                <path d="M48.4669,25.6037 L48.4669,23.2737 C48.4669,22.7677 48.8769,22.3577 49.3839,22.3577 L68.5389,22.3577 C69.0449,22.3577 69.4549,22.7677 69.4549,23.2737 L69.4549,25.6037 C69.4549,26.1097 69.0449,26.5207 68.5389,26.5207 L49.3839,26.5207 C48.8769,26.5207 48.4669,26.1097 48.4669,25.6037 Z" id="Stroke-9" stroke="#1DABE3" stroke-width="3"></path>
                                <path d="M84.124,51.546 L84.124,4.583 C84.124,2.052 82.072,0 79.541,0 L38.382,0 C35.85,0 33.798,2.052 33.798,4.583 L33.798,56.743" id="Stroke-11" stroke="#1DABE3" stroke-width="3" stroke-linecap="round" stroke-linejoin="round"></path>
                                <path d="M115,78.8294 L115,23.4834 C115,20.9524 112.948,18.9004 110.417,18.9004 L90.014,18.9004" id="Stroke-13" stroke="#1DABE3" stroke-width="3" stroke-linecap="round" stroke-linejoin="round"></path>
                                <path d="M69.4554,78.8294 L69.4554,60.1674 C69.4554,58.7454 68.1444,57.5934 66.5264,57.5934 L51.3964,57.5934 C49.7784,57.5934 48.4674,58.7454 48.4674,60.1674 L48.4674,78.8294" id="Stroke-15" stroke="#1DABE3" stroke-width="3" stroke-linecap="round" stroke-linejoin="round"></path>
                                <path d="M5,78.8294 L5,38.1494 C5,35.6174 7.052,33.5654 9.583,33.5654 L28.651,33.5654" id="Stroke-17" stroke="#1DABE3" stroke-width="3" stroke-linecap="round" stroke-linejoin="round"></path>
                                <path d="M28.4632,64.1538 L28.4632,64.1538 C27.6272,65.9358 25.4852,66.7108 23.7022,65.8748 L14.3402,61.4838 C12.5572,60.6478 11.7832,58.5058 12.6192,56.7238 L12.6192,56.7238 C13.4552,54.9408 15.5972,54.1668 17.3792,55.0028 L26.7422,59.3928 C28.5242,60.2288 29.2992,62.3718 28.4632,64.1538 Z" id="Stroke-19" stroke="#1DABE3" stroke-width="3" stroke-linecap="round" stroke-linejoin="round"></path>
                                <path d="M28.4632,64.1538 L28.4632,64.1538 C27.6242,65.9438 25.4922,66.7138 23.7022,65.8748 L19.7412,64.0168 L22.7812,57.5358 L26.7422,59.3928 C28.5322,60.2328 29.3022,62.3638 28.4632,64.1538" id="Fill-21" fill="#1DABE3"></path>
                                <path d="M28.4632,64.1538 L28.4632,64.1538 C27.6242,65.9438 25.4922,66.7138 23.7022,65.8748 L19.7412,64.0168 L22.7812,57.5358 L26.7422,59.3928 C28.5322,60.2328 29.3022,62.3638 28.4632,64.1538 Z" id="Stroke-23" stroke="#1DABE3" stroke-width="3" stroke-linecap="round" stroke-linejoin="round"></path>
                                <path d="M40.5158,73.9886 L40.5158,73.9886 C41.0058,75.8956 39.8478,77.8566 37.9408,78.3466 L27.9258,80.9226 C26.0188,81.4126 24.0578,80.2536 23.5668,78.3476 L23.5668,78.3476 C23.0768,76.4406 24.2358,74.4796 26.1428,73.9886 L36.1578,71.4136 C38.0638,70.9226 40.0258,72.0816 40.5158,73.9886 Z" id="Stroke-25" stroke="#1DABE3" stroke-width="3" stroke-linecap="round" stroke-linejoin="round"></path>
                                <path d="M40.5158,73.9886 L40.5158,73.9886 C41.0078,75.9036 39.8548,77.8546 37.9408,78.3466 L33.7038,79.4366 L31.9208,72.5036 L36.1578,71.4136 C38.0718,70.9206 40.0238,72.0736 40.5158,73.9886" id="Fill-27" fill="#1DABE3"></path>
                                <path d="M40.5158,73.9886 L40.5158,73.9886 C41.0078,75.9036 39.8548,77.8546 37.9408,78.3466 L33.7038,79.4366 L31.9208,72.5036 L36.1578,71.4136 C38.0718,70.9206 40.0238,72.0736 40.5158,73.9886 Z" id="Stroke-29" stroke="#1DABE3" stroke-width="3" stroke-linecap="round" stroke-linejoin="round"></path>
                                <polygon id="Stroke-31" stroke="#1DABE3" stroke-width="3" stroke-linejoin="round" points="97.0423 79.3573 85.4013 75.4193 96.0943 43.8113 102.3803 44.4053 107.7353 47.7493"></polygon>
                                <polygon id="Stroke-33" stroke="#1DABE3" stroke-width="3" stroke-linejoin="round" points="89.5936 89.315 85.2746 87.854 89.0626 76.656 93.3816 78.117"></polygon>
                                <line x1="81.521" y1="74.1063" x2="100.923" y2="80.6703" id="Stroke-35" stroke="#1DABE3" stroke-width="3" stroke-linecap="round" stroke-linejoin="round"></line>
                                <line x1="82.5836" y1="86.9434" x2="92.2846" y2="90.2254" id="Stroke-37" stroke="#1DABE3" stroke-width="3" stroke-linecap="round" stroke-linejoin="round"></line>
                                <line x1="105.6622" y1="34.7047" x2="102.3802" y2="44.4057" id="Stroke-39" stroke="#1DABE3" stroke-width="3" stroke-linecap="round" stroke-linejoin="round"></line>
                                <line x1="94.1291" y1="49.6211" x2="97.7901" y2="50.8591" id="Stroke-41" stroke="#1DABE3" stroke-width="3" stroke-linecap="round" stroke-linejoin="round"></line>
                                <line x1="92.0514" y1="55.7625" x2="95.7124" y2="57.0005" id="Stroke-43" stroke="#1DABE3" stroke-width="3" stroke-linecap="round" stroke-linejoin="round"></line>
                                <line x1="89.9737" y1="61.9039" x2="93.6347" y2="63.1429" id="Stroke-45" stroke="#1DABE3" stroke-width="3" stroke-linecap="round" stroke-linejoin="round"></line>
                                <line x1="87.8959" y1="68.0453" x2="91.5569" y2="69.2833" id="Stroke-47" stroke="#1DABE3" stroke-width="3" stroke-linecap="round" stroke-linejoin="round"></line>
                                <line x1="58.9164" y1="62.7077" x2="58.9164" y2="78.8297" id="Stroke-49" stroke="#1DABE3" stroke-width="3" stroke-linecap="round" stroke-linejoin="round"></line>
                                <line x1="0" y1="88.4668" x2="74.632" y2="88.4668" id="Stroke-51" stroke="#1DABE3" stroke-width="3" stroke-linecap="round" stroke-linejoin="round"></line>
                                <line x1="100" y1="88.4668" x2="120" y2="88.4668" id="Stroke-53" stroke="#1DABE3" stroke-width="3" stroke-linecap="round" stroke-linejoin="round"></line>
                            </g>
                        </g>
                    </g>
                </g>
            </g>
        </g>
    </g>
</svg>