<?xml version="1.0" encoding="utf-8"?>
<!-- Generator: Adobe Illustrator 21.0.2, SVG Export Plug-In . SVG Version: 6.00 Build 0)  -->
<svg version="1.1" id="レイヤー_1" xmlns="http://www.w3.org/2000/svg" xmlns:xlink="http://www.w3.org/1999/xlink" x="0px"
	 y="0px" viewBox="0 0 174 32" style="enable-background:new 0 0 174 32;" xml:space="preserve">
<style type="text/css">
	.st0{fill:#FFFFFF;}
</style>
<g>
	<path class="st0" d="M84.3,24h10c1.3,0,2.4-1.1,2.4-2.4c0-0.8-0.5-1.9-1.1-2.2l-8.8-4.2c-1.7-0.9-2.7-2.9-2.7-5
		c0-3.4,2.9-5.9,5.9-5.9h9.5V8h-9.5c-1.2,0-2.1,1.1-2.1,2.1c0,0.6,0.3,1.5,1,1.9l8.6,4.1c1.9,0.9,3.1,3.2,3.1,5.4
		c0,3.5-2.9,6.2-6.2,6.2h-10V24z"/>
	<path class="st0" d="M103.5,4.3h3.9v9.8h11.1V4.3h3.9v23.3h-3.9v-9.9h-11.1v9.9h-3.9V4.3z"/>
	<path class="st0" d="M127.2,4.3h3.9v23.3h-3.9V4.3z"/>
	<path class="st0" d="M161.7,8h-7.3V4.3h18.4V8h-7.3v19.7h-3.9V8z"/>
	<path class="st0" d="M49.1,4.3h5.3l8.9,23.3h-4.2l-2.3-6.1h-10l-2.3,6.1h-4.2L49.1,4.3z M55.4,18l-3.7-9.7L48.1,18H55.4z"/>
	<path class="st0" d="M67.1,5c1.5,0,2.6,1.2,2.6,2.6c0,1.4-1.1,2.5-2.6,2.5c-1.3,0-2.5-1.1-2.5-2.5C64.6,6.1,65.8,5,67.1,5z
		 M65.2,12h3.9v15.6h-3.9V12z"/>
	<path class="st0" d="M72.2,19.8c0-4.2,3.6-7.7,7.9-7.7h1.2v3.6H80c-2.2,0-4,2-4,4.1v7.9h-3.9V19.8z"/>
	<path class="st0" d="M17.3,5.5c0.7,0,1.3,0.4,1.7,1l9.8,17.1c0.3,0.6,0.3,1.3,0,1.9c-0.3,0.6-1,1-1.7,1H7.5c-0.7,0-1.3-0.4-1.7-1
		c-0.3-0.6-0.3-1.3,0-1.9l9.9-17.1C16,5.9,16.6,5.5,17.3,5.5 M17.3,0c-2.7,0-5.1,1.4-6.5,3.7L1,20.8c-1.3,2.3-1.3,5.2,0,7.5
		C2.3,30.6,4.8,32,7.5,32h19.7c2.7,0,5.1-1.4,6.5-3.7c1.3-2.3,1.3-5.2,0-7.5L23.8,3.7C22.5,1.4,20,0,17.3,0L17.3,0z"/>
	<g>
		<path class="st0" d="M135.8,13.1c0-4.8,4-8.8,8.7-8.8h7.4V8h-7.4v0c-2.7,0-4.9,2.5-4.9,5.2l0,0v1h10.8v3.6h-10.8v9.9h-3.9V13.1"/>
	</g>
</g>
</svg>
